<svg width="434" height="138" viewBox="0 0 434 138" fill="none" xmlns="http://www.w3.org/2000/svg">
<path d="M210.751 46.1212C210.751 48.7754 210.033 50.9945 208.597 52.7785C207.205 54.519 205.312 55.8244 202.919 56.6946C200.525 57.5649 197.893 58 195.021 58H172.438V11.6595H198.219C200.395 11.6595 202.266 12.2469 203.832 13.4217C205.442 14.553 206.661 16.0324 207.487 17.86C208.358 19.6875 208.793 21.5803 208.793 23.5383C208.793 25.7139 208.227 27.8025 207.096 29.8041C205.964 31.7621 204.311 33.2415 202.135 34.2423C204.79 35.0255 206.878 36.4179 208.401 38.4195C209.968 40.4211 210.751 42.9883 210.751 46.1212ZM199.851 43.9673C199.851 42.9665 199.655 42.0963 199.264 41.3566C198.872 40.5733 198.35 39.9642 197.697 39.5291C197.088 39.0504 196.348 38.8111 195.478 38.8111H183.142V48.9277H195.021C195.935 48.9277 196.74 48.7101 197.436 48.275C198.176 47.8399 198.763 47.2525 199.198 46.5128C199.633 45.7731 199.851 44.9246 199.851 43.9673ZM183.142 20.797V30.3915H193.65C194.434 30.3915 195.152 30.2174 195.804 29.8693C196.501 29.5212 197.066 28.9991 197.501 28.3029C197.936 27.5632 198.154 26.6494 198.154 25.5616C198.154 24.5173 197.958 23.6471 197.567 22.9509C197.218 22.2547 196.74 21.7325 196.131 21.3844C195.521 20.9928 194.825 20.797 194.042 20.797H183.142ZM215.626 45.6643V23.7341H226.068V43.3799C226.068 45.4685 226.482 47.0784 227.309 48.2097C228.135 49.2976 229.31 49.8415 230.833 49.8415C231.79 49.8415 232.704 49.6892 233.574 49.3846C234.445 49.0365 235.293 48.4926 236.12 47.7529C236.947 47.0132 237.686 46.0559 238.339 44.8811V23.7341H248.782V46.3822C248.782 47.4265 248.934 48.1662 249.239 48.6014C249.587 48.993 250.174 49.2323 251.001 49.3193V58C250.044 58.174 249.195 58.3046 248.455 58.3916C247.759 58.4786 247.128 58.5221 246.563 58.5221C244.735 58.5221 243.278 58.1523 242.19 57.4126C241.102 56.6294 240.427 55.5416 240.166 54.1492L239.971 52.0606C238.404 54.3232 236.446 55.9984 234.096 57.0862C231.79 58.1305 229.201 58.6527 226.33 58.6527C222.849 58.6527 220.194 57.5431 218.367 55.324C216.539 53.1049 215.626 49.885 215.626 45.6643ZM256.872 58V23.7341H267.315V58H256.872ZM256.872 19.818V10.3541H267.315V19.818H256.872ZM274.333 10.3541H284.776V45.7948C284.776 47.2307 285.037 48.2533 285.56 48.8624C286.082 49.4716 286.821 49.7762 287.779 49.7762C288.431 49.7762 289.084 49.6892 289.737 49.5151C290.433 49.2976 291.042 49.0582 291.564 48.7972L292.935 56.6294C291.63 57.2385 290.128 57.7172 288.431 58.0653C286.734 58.4134 285.146 58.5874 283.667 58.5874C280.708 58.5874 278.402 57.8042 276.748 56.2378C275.138 54.6278 274.333 52.3652 274.333 49.4498V10.3541ZM294.368 40.8344C294.368 37.484 295.021 34.4816 296.326 31.8274C297.632 29.1296 299.416 26.9975 301.678 25.4311C303.941 23.8646 306.552 23.0814 309.51 23.0814C311.904 23.0814 314.079 23.6688 316.037 24.8437C317.995 25.975 319.475 27.4762 320.476 29.3472V10.3541H330.919V46.3822C330.919 47.4265 331.093 48.1662 331.441 48.6014C331.789 48.993 332.354 49.2323 333.138 49.3193V58C331.31 58.3481 329.831 58.5221 328.699 58.5221C326.915 58.5221 325.458 58.1305 324.326 57.3473C323.239 56.5641 322.564 55.4763 322.303 54.0839L322.107 52.3217C320.889 54.4538 319.235 56.0419 317.147 57.0862C315.058 58.1305 312.861 58.6527 310.555 58.6527C308.205 58.6527 306.03 58.2176 304.028 57.3473C302.07 56.4336 300.351 55.1717 298.872 53.5618C297.436 51.9518 296.326 50.059 295.543 47.8834C294.76 45.7078 294.368 43.3581 294.368 40.8344ZM320.541 45.0769V37.8973C320.106 36.7225 319.475 35.7 318.648 34.8297C317.865 33.9595 316.951 33.2633 315.907 32.7411C314.906 32.219 313.883 31.9579 312.839 31.9579C311.708 31.9579 310.664 32.1972 309.706 32.6759C308.793 33.1545 307.988 33.8289 307.291 34.6992C306.595 35.5259 306.051 36.4832 305.66 37.571C305.312 38.6588 305.138 39.8119 305.138 41.0302C305.138 42.2921 305.333 43.4669 305.725 44.5547C306.16 45.599 306.747 46.5345 307.487 47.3613C308.227 48.1445 309.097 48.7536 310.098 49.1888C311.099 49.6239 312.186 49.8415 313.361 49.8415C314.101 49.8415 314.819 49.7327 315.515 49.5151C316.211 49.254 316.864 48.9277 317.473 48.5361C318.126 48.1445 318.713 47.6441 319.235 47.0349C319.758 46.4257 320.193 45.7731 320.541 45.0769ZM355.414 58.6527C352.498 58.6527 349.909 58.1958 347.647 57.282C345.384 56.3248 343.448 55.0412 341.838 53.4312C340.271 51.8213 339.075 49.972 338.248 47.8834C337.421 45.7513 337.008 43.5322 337.008 41.226C337.008 37.9191 337.726 34.9168 339.162 32.219C340.641 29.4777 342.751 27.2804 345.493 25.6269C348.234 23.9299 351.541 23.0814 355.414 23.0814C359.286 23.0814 362.571 23.9082 365.269 25.5616C368.01 27.2151 370.099 29.3907 371.535 32.0885C372.971 34.7427 373.689 37.6363 373.689 40.7692C373.689 41.3783 373.645 41.9875 373.558 42.5967C373.515 43.1623 373.471 43.6627 373.428 44.0978H348.103C348.234 45.6208 348.647 46.9044 349.344 47.9487C350.083 48.993 351.019 49.7979 352.15 50.3636C353.281 50.8857 354.478 51.1468 355.74 51.1468C357.306 51.1468 358.764 50.777 360.113 50.0373C361.505 49.2976 362.463 48.2968 362.985 47.0349L371.861 49.5151C370.991 51.2991 369.751 52.8873 368.141 54.2797C366.574 55.6286 364.703 56.6946 362.528 57.4779C360.396 58.2611 358.024 58.6527 355.414 58.6527ZM347.842 37.7015H362.724C362.55 36.2656 362.136 35.0255 361.483 33.9812C360.831 32.8934 359.961 32.0667 358.873 31.501C357.785 30.8919 356.588 30.5873 355.283 30.5873C353.934 30.5873 352.716 30.8919 351.628 31.501C350.584 32.0667 349.735 32.8934 349.082 33.9812C348.43 35.0255 348.016 36.2656 347.842 37.7015ZM400.156 32.6759C397.632 32.6759 395.348 33.0892 393.303 33.916C391.258 34.6992 389.778 35.874 388.865 37.4405V58H378.422V23.7341H388.016V30.6526C389.191 28.3464 390.714 26.5406 392.585 25.2353C394.456 23.9299 396.414 23.2555 398.459 23.212C398.938 23.212 399.286 23.212 399.503 23.212C399.764 23.212 399.982 23.2337 400.156 23.2772V32.6759ZM417.673 58.6527C414.758 58.6527 411.908 58.174 409.123 57.2168C406.338 56.2595 403.989 54.8454 402.074 52.9743L405.664 46.3822C407.753 47.9052 409.776 49.0582 411.734 49.8415C413.736 50.6247 415.607 51.0163 417.347 51.0163C418.696 51.0163 419.74 50.7987 420.48 50.3636C421.22 49.9285 421.59 49.254 421.59 48.3403C421.59 47.6876 421.372 47.1872 420.937 46.8391C420.502 46.4475 419.827 46.0994 418.914 45.7948C418.043 45.4902 416.955 45.1639 415.65 44.8158C413.039 43.9455 410.864 43.0971 409.123 42.2703C407.383 41.4436 406.077 40.4428 405.207 39.268C404.337 38.0496 403.902 36.4832 403.902 34.5687C403.902 32.2625 404.467 30.2609 405.599 28.564C406.774 26.8235 408.427 25.4746 410.559 24.5173C412.691 23.5601 415.237 23.0814 418.196 23.0814C420.545 23.0814 422.83 23.4513 425.049 24.191C427.311 24.9307 429.422 26.1708 431.38 27.9113L427.333 34.4381C425.375 33.0892 423.635 32.1102 422.112 31.501C420.589 30.8919 419.109 30.5873 417.673 30.5873C416.934 30.5873 416.259 30.6743 415.65 30.8484C415.041 31.0224 414.541 31.327 414.149 31.7621C413.801 32.1537 413.627 32.6759 413.627 33.3286C413.627 33.9812 413.801 34.5034 414.149 34.895C414.541 35.2866 415.128 35.6347 415.911 35.9393C416.738 36.2004 417.76 36.5267 418.979 36.9183C421.807 37.745 424.157 38.5935 426.028 39.4638C427.899 40.2905 429.291 41.3348 430.205 42.5967C431.162 43.815 431.641 45.4467 431.641 47.4918C431.641 50.9728 430.379 53.714 427.855 55.7156C425.375 57.6737 421.981 58.6527 417.673 58.6527ZM192.084 127.326C189.038 127.326 186.166 126.761 183.469 125.629C180.771 124.455 178.399 122.823 176.354 120.734C174.309 118.602 172.699 116.1 171.524 113.228C170.393 110.313 169.828 107.071 169.828 103.503C169.828 100.283 170.415 97.2811 171.59 94.4964C172.765 91.7116 174.396 89.2531 176.485 87.121C178.573 84.9889 181.01 83.3355 183.795 82.1606C186.623 80.9423 189.669 80.3331 192.933 80.3331C197.197 80.3331 200.961 81.2469 204.224 83.0744C207.487 84.9019 209.902 87.3603 211.469 90.4497L203.506 96.4544C202.462 94.4093 200.939 92.7994 198.937 91.6245C196.979 90.4497 194.847 89.8623 192.541 89.8623C190.8 89.8623 189.19 90.2322 187.711 90.9719C186.275 91.6681 185.013 92.6688 183.925 93.9742C182.881 95.2361 182.076 96.7155 181.511 98.4125C180.945 100.109 180.662 101.937 180.662 103.895C180.662 105.897 180.967 107.746 181.576 109.443C182.185 111.14 183.033 112.619 184.121 113.881C185.209 115.099 186.493 116.057 187.972 116.753C189.495 117.449 191.17 117.797 192.998 117.797C195.217 117.797 197.327 117.253 199.329 116.165C201.374 115.034 203.245 113.381 204.942 111.205V121.779C201.243 125.477 196.957 127.326 192.084 127.326ZM204.289 110.552H195.282V102.785H213.166V127H204.289V110.552ZM217.24 116.753C217.24 114.49 217.871 112.51 219.133 110.813C220.395 109.116 222.135 107.789 224.354 106.832C226.573 105.831 229.119 105.331 231.991 105.331C233.383 105.331 234.754 105.461 236.102 105.723C237.451 105.94 238.626 106.266 239.627 106.702V105.2C239.627 103.329 239.061 101.893 237.93 100.893C236.799 99.8919 235.08 99.3915 232.774 99.3915C230.859 99.3915 229.053 99.7178 227.356 100.371C225.703 101.023 223.941 101.959 222.07 103.177L218.937 96.5197C221.199 95.0403 223.549 93.9307 225.986 93.191C228.466 92.4513 231.077 92.0814 233.818 92.0814C238.952 92.0814 242.934 93.3215 245.762 95.8017C248.634 98.2384 250.07 101.785 250.07 106.44V115.382C250.07 116.427 250.222 117.166 250.527 117.601C250.875 117.993 251.462 118.232 252.289 118.319V127C251.419 127.174 250.592 127.305 249.809 127.392C249.069 127.479 248.416 127.522 247.851 127.522C245.893 127.522 244.392 127.131 243.347 126.347C242.346 125.564 241.716 124.498 241.454 123.149L241.259 121.648C239.736 123.606 237.908 125.107 235.776 126.152C233.688 127.152 231.49 127.653 229.184 127.653C226.921 127.653 224.876 127.174 223.049 126.217C221.265 125.26 219.851 123.954 218.806 122.301C217.762 120.647 217.24 118.798 217.24 116.753ZM237.995 118.058C238.474 117.667 238.865 117.232 239.17 116.753C239.475 116.274 239.627 115.817 239.627 115.382V112.315C238.757 111.967 237.778 111.705 236.69 111.531C235.646 111.314 234.667 111.205 233.753 111.205C231.838 111.205 230.25 111.64 228.988 112.51C227.726 113.337 227.095 114.447 227.095 115.839C227.095 116.622 227.313 117.34 227.748 117.993C228.183 118.646 228.771 119.168 229.51 119.559C230.294 119.951 231.207 120.147 232.252 120.147C233.296 120.147 234.34 119.951 235.384 119.559C236.429 119.168 237.299 118.667 237.995 118.058ZM279.371 101.676C276.848 101.676 274.563 102.089 272.518 102.916C270.473 103.699 268.994 104.874 268.08 106.44V127H257.637V92.7341H267.231V99.6526C268.406 97.3464 269.929 95.5406 271.8 94.2353C273.671 92.9299 275.629 92.2555 277.674 92.212C278.153 92.212 278.501 92.212 278.719 92.212C278.98 92.212 279.197 92.2337 279.371 92.2772V101.676ZM281.62 109.834C281.62 106.484 282.273 103.482 283.579 100.827C284.884 98.1296 286.668 95.9975 288.931 94.4311C291.193 92.8646 293.804 92.0814 296.763 92.0814C299.156 92.0814 301.332 92.6688 303.29 93.8437C305.248 94.975 306.727 96.4762 307.728 98.3472V79.3541H318.171V115.382C318.171 116.427 318.345 117.166 318.693 117.601C319.041 117.993 319.607 118.232 320.39 118.319V127C318.562 127.348 317.083 127.522 315.952 127.522C314.168 127.522 312.71 127.131 311.579 126.347C310.491 125.564 309.816 124.476 309.555 123.084L309.36 121.322C308.141 123.454 306.488 125.042 304.399 126.086C302.311 127.131 300.113 127.653 297.807 127.653C295.457 127.653 293.282 127.218 291.28 126.347C289.322 125.434 287.603 124.172 286.124 122.562C284.688 120.952 283.579 119.059 282.795 116.883C282.012 114.708 281.62 112.358 281.62 109.834ZM307.793 114.077V106.897C307.358 105.723 306.727 104.7 305.9 103.83C305.117 102.959 304.203 102.263 303.159 101.741C302.158 101.219 301.136 100.958 300.091 100.958C298.96 100.958 297.916 101.197 296.959 101.676C296.045 102.155 295.24 102.829 294.544 103.699C293.847 104.526 293.304 105.483 292.912 106.571C292.564 107.659 292.39 108.812 292.39 110.03C292.39 111.292 292.586 112.467 292.977 113.555C293.412 114.599 294 115.535 294.739 116.361C295.479 117.144 296.349 117.754 297.35 118.189C298.351 118.624 299.439 118.841 300.614 118.841C301.353 118.841 302.071 118.733 302.767 118.515C303.464 118.254 304.116 117.928 304.725 117.536C305.378 117.144 305.966 116.644 306.488 116.035C307.01 115.426 307.445 114.773 307.793 114.077ZM342.666 127.653C339.75 127.653 337.162 127.196 334.899 126.282C332.636 125.325 330.7 124.041 329.09 122.431C327.524 120.821 326.327 118.972 325.5 116.883C324.673 114.751 324.26 112.532 324.26 110.226C324.26 106.919 324.978 103.917 326.414 101.219C327.893 98.4777 330.004 96.2804 332.745 94.6269C335.486 92.9299 338.793 92.0814 342.666 92.0814C346.538 92.0814 349.824 92.9082 352.521 94.5616C355.263 96.2151 357.351 98.3907 358.787 101.088C360.223 103.743 360.941 106.636 360.941 109.769C360.941 110.378 360.897 110.987 360.81 111.597C360.767 112.162 360.723 112.663 360.68 113.098H335.356C335.486 114.621 335.9 115.904 336.596 116.949C337.336 117.993 338.271 118.798 339.402 119.364C340.534 119.886 341.73 120.147 342.992 120.147C344.559 120.147 346.016 119.777 347.365 119.037C348.758 118.298 349.715 117.297 350.237 116.035L359.113 118.515C358.243 120.299 357.003 121.887 355.393 123.28C353.827 124.629 351.956 125.695 349.78 126.478C347.648 127.261 345.277 127.653 342.666 127.653ZM335.095 106.702H349.976C349.802 105.266 349.388 104.026 348.736 102.981C348.083 101.893 347.213 101.067 346.125 100.501C345.037 99.8919 343.841 99.5873 342.535 99.5873C341.186 99.5873 339.968 99.8919 338.88 100.501C337.836 101.067 336.987 101.893 336.335 102.981C335.682 104.026 335.269 105.266 335.095 106.702ZM398.7 127H388.257V107.746C388.257 105.483 387.822 103.851 386.951 102.851C386.125 101.806 385.015 101.284 383.623 101.284C382.665 101.284 381.686 101.545 380.686 102.067C379.685 102.59 378.771 103.308 377.944 104.221C377.161 105.135 376.552 106.179 376.117 107.354V127H365.674V92.7341H375.073V98.4777C375.943 97.1288 377.031 95.9758 378.336 95.0185C379.641 94.0612 381.143 93.3433 382.839 92.8646C384.536 92.3425 386.386 92.0814 388.387 92.0814C390.606 92.0814 392.39 92.4948 393.739 93.3215C395.132 94.1047 396.176 95.149 396.872 96.4544C397.612 97.7598 398.091 99.1739 398.308 100.697C398.569 102.176 398.7 103.634 398.7 105.07V127Z" fill="black"/>
<g clip-path="url(#clip0_7_1094)">
<path d="M128.165 68.6886C127.78 67.4652 127.322 66.2659 126.796 65.096C126.628 64.7224 126.454 64.3522 126.272 63.9856C126.183 63.8052 126.092 63.6258 125.999 63.4472C125.109 61.7276 124.066 60.0789 122.881 58.5189C122.69 58.2687 122.496 58.0211 122.299 57.7752C122.005 57.4085 121.702 57.047 121.393 56.6916C121.153 56.4172 120.909 56.1454 120.66 55.878C120.506 55.7123 120.351 55.5475 120.193 55.3844C119.346 54.5053 118.447 53.6641 117.5 52.8643C116.921 52.3759 116.328 51.9057 115.721 51.4545C116.954 49.4649 117.989 47.37 118.814 45.1889C120.203 41.5169 120.957 37.712 121.057 33.8795C121.104 32.084 121.006 30.3136 120.766 28.576C120.72 28.2455 120.669 27.9168 120.614 27.5889C120.545 27.1826 120.468 26.7788 120.383 26.3767C120.058 24.8358 119.618 23.325 119.063 21.8514C118.241 19.6729 117.187 17.6281 115.913 15.7299C114.834 14.1226 113.599 12.6196 112.21 11.234C111.363 10.3893 110.47 9.60244 109.538 8.87252C104.184 4.67766 97.4998 2.3999 90.3692 2.3999C85.7857 2.3999 81.2618 3.32308 76.9196 5.1427C72.5048 6.99337 68.5173 9.67664 65.0662 13.1174C64.9771 13.2063 64.8889 13.2952 64.8006 13.3849C64.7124 13.2952 64.6241 13.2063 64.535 13.1174C61.084 9.67578 57.0965 6.99251 52.6816 5.1427C48.3403 3.32222 43.8165 2.3999 39.2338 2.3999C30.8609 2.3999 23.104 5.53785 17.3914 11.2348C11.6434 16.9672 8.49768 24.753 8.53402 33.1565C8.53921 34.3765 8.61188 35.5956 8.75031 36.8087C8.78924 37.1538 8.83423 37.498 8.8844 37.8423C8.92247 38.1011 8.96313 38.36 9.00639 38.6188C9.06089 38.9406 9.11972 39.2616 9.18288 39.5817C9.19845 39.6602 9.21489 39.7396 9.23046 39.8181C9.29362 40.1235 9.36024 40.4289 9.43118 40.7335C9.49952 41.0242 9.57133 41.3141 9.6466 41.604C9.81963 42.2658 10.0117 42.9241 10.2237 43.5764C10.2643 43.7023 10.3058 43.8283 10.3482 43.9534C10.5576 44.5755 10.7851 45.1924 11.0291 45.8041C11.8077 47.7522 12.7603 49.6443 13.8806 51.4536C13.2716 51.9066 12.6763 52.3785 12.095 52.8694C7.0278 57.1514 3.3414 62.6232 1.43462 68.6929C0.450079 71.8335 -0.0326729 75.0603 0.00279815 78.2819C0.00971933 78.9014 0.0356738 79.5192 0.0806614 80.1335C0.0988295 80.3785 0.119593 80.6227 0.143817 80.8677C0.180153 81.2361 0.223411 81.6036 0.272724 81.9703C0.280511 82.0281 0.288297 82.0851 0.296948 82.1429C0.461326 83.3025 0.694916 84.45 0.995988 85.5828C1.0254 85.6924 1.05482 85.802 1.0851 85.9115C1.16469 86.1971 1.24861 86.481 1.33599 86.7648C1.47961 87.2273 1.6336 87.6871 1.79971 88.1436C1.97707 88.6293 2.16826 89.109 2.36984 89.5835C3.49799 92.2375 4.99989 94.7068 6.85131 96.9397C7.5019 97.7248 8.19229 98.4763 8.92074 99.1933C9.53413 99.7972 10.1752 100.376 10.8405 100.929C11.3804 101.378 11.9366 101.809 12.5085 102.223C12.82 102.449 13.1366 102.669 13.4576 102.884C13.718 103.059 13.981 103.231 14.2475 103.398C14.3115 103.438 14.3764 103.477 14.4404 103.517C14.8427 103.765 15.2502 104.006 15.662 104.236C15.8904 104.364 16.1196 104.49 16.3515 104.612C21.2517 107.204 26.8172 108.566 32.5929 108.566C32.7296 108.566 32.8672 108.566 33.0039 108.563C32.6959 108.838 32.3827 109.11 32.0652 109.377L22.1056 117.595C22.1056 117.595 26.9201 122.086 33.1734 126.033C42.62 132.03 53.5554 135.2 64.7972 135.2C76.0389 135.2 86.6603 132.12 96.0108 126.293C102.319 122.45 107.133 117.959 107.133 117.959L97.2636 109.65C96.844 109.292 96.4339 108.925 96.0316 108.552C96.356 108.561 96.6813 108.565 97.0066 108.565C103.624 108.565 109.966 106.779 115.347 103.4C118.172 101.627 120.661 99.4538 122.745 96.9423C124.928 94.3099 126.628 91.3497 127.799 88.1444C128.956 84.9754 129.56 81.6563 129.598 78.2802C129.6 78.0792 129.6 77.8773 129.598 77.6762C129.57 74.6548 129.088 71.635 128.162 68.6895L128.165 68.6886ZM38.7597 117.291C38.899 117.175 39.0365 117.057 39.1741 116.939C39.2217 116.898 39.2684 116.858 39.3151 116.817C39.4085 116.735 39.502 116.655 39.5946 116.574C39.6499 116.526 39.7044 116.477 39.7598 116.427C39.8437 116.353 39.9276 116.278 40.0116 116.203C40.0695 116.151 40.1266 116.099 40.1846 116.047C40.265 115.974 40.3446 115.901 40.4242 115.828C40.4831 115.774 40.541 115.72 40.599 115.666C40.6777 115.592 40.7556 115.52 40.8343 115.446C40.8923 115.391 40.9494 115.337 41.0073 115.282C41.0861 115.207 41.1648 115.132 41.2435 115.056C41.2989 115.003 41.3543 114.949 41.4096 114.896C41.491 114.817 41.5723 114.736 41.6536 114.657C41.7047 114.607 41.7557 114.556 41.8067 114.506C41.8976 114.415 41.9884 114.325 42.0784 114.233C42.1182 114.193 42.1589 114.152 42.1995 114.112C42.3293 113.98 42.4582 113.848 42.5862 113.714C42.6096 113.69 42.6321 113.666 42.6546 113.642C42.7601 113.532 42.8648 113.422 42.9686 113.311C43.0145 113.263 43.0595 113.214 43.1053 113.164C43.1866 113.077 43.2671 112.99 43.3476 112.903C43.3986 112.848 43.4488 112.792 43.499 112.736C43.5734 112.654 43.6478 112.572 43.7222 112.49C43.7741 112.432 43.826 112.373 43.8779 112.315C43.9497 112.233 44.0215 112.153 44.0925 112.071C44.1444 112.012 44.1971 111.951 44.2491 111.892C44.32 111.811 44.3901 111.729 44.4601 111.648C44.5112 111.588 44.5622 111.528 44.6133 111.468C44.6842 111.384 44.7552 111.3 44.8252 111.216C44.8737 111.158 44.923 111.1 44.9714 111.041C45.045 110.952 45.1185 110.862 45.1921 110.773C45.2362 110.718 45.2812 110.664 45.3253 110.61C45.4109 110.504 45.4957 110.397 45.5805 110.29C45.6108 110.252 45.6419 110.214 45.6731 110.175C45.7881 110.03 45.9023 109.883 46.0148 109.737C46.0434 109.701 46.071 109.664 46.0987 109.628C46.1835 109.517 46.2683 109.406 46.3522 109.295C46.3937 109.24 46.4344 109.184 46.4759 109.13C46.546 109.036 46.6161 108.942 46.6862 108.848C46.7312 108.787 46.7753 108.726 46.8194 108.665C46.8843 108.576 46.9492 108.486 47.0141 108.397C47.0599 108.333 47.1058 108.268 47.1516 108.204C47.2139 108.116 47.2762 108.028 47.3385 107.939C47.3843 107.875 47.4293 107.809 47.4743 107.744C47.5366 107.655 47.598 107.566 47.6595 107.476C47.7036 107.411 47.7477 107.347 47.7918 107.283C47.8541 107.19 47.9164 107.098 47.9778 107.005C48.0194 106.943 48.0609 106.881 48.1024 106.818C48.1682 106.718 48.2331 106.618 48.2979 106.518C48.3343 106.462 48.3715 106.406 48.4078 106.35C48.4891 106.224 48.5696 106.097 48.6492 105.97C48.6682 105.939 48.6881 105.909 48.708 105.878C48.8066 105.721 48.9044 105.563 49.0013 105.404C49.0307 105.357 49.0593 105.309 49.0878 105.261C49.1553 105.15 49.2228 105.038 49.2903 104.926C49.3275 104.863 49.3638 104.801 49.4001 104.739C49.4581 104.641 49.5169 104.542 49.574 104.442C49.613 104.375 49.651 104.308 49.69 104.241C49.7445 104.147 49.799 104.051 49.8535 103.955C49.8924 103.886 49.9313 103.817 49.9703 103.747C50.023 103.652 50.0758 103.557 50.1277 103.462C50.1658 103.392 50.2039 103.323 50.2419 103.254C50.2947 103.157 50.3466 103.06 50.3977 102.964C50.434 102.895 50.4712 102.826 50.5075 102.757C50.5603 102.657 50.6131 102.556 50.665 102.456C50.6987 102.391 50.7333 102.325 50.7671 102.259C50.8233 102.149 50.8787 102.039 50.9349 101.928C50.9635 101.871 50.9929 101.814 51.0214 101.757C51.1001 101.599 51.178 101.441 51.255 101.282C51.2593 101.273 51.2645 101.263 51.2689 101.254C51.3502 101.085 51.4306 100.916 51.5102 100.747C51.5362 100.692 51.5621 100.636 51.5881 100.58C51.6409 100.465 51.6945 100.351 51.7464 100.236C51.7767 100.169 51.807 100.102 51.8373 100.034C51.884 99.9301 51.9307 99.8265 51.9774 99.7213C52.0094 99.6497 52.0406 99.5781 52.0717 99.5065C52.1158 99.4055 52.16 99.3046 52.2032 99.2028C52.2344 99.1294 52.2664 99.0552 52.2966 98.9819C52.339 98.8809 52.3814 98.78 52.423 98.679C52.4532 98.6057 52.4835 98.5315 52.5138 98.4573C52.5553 98.3546 52.5969 98.252 52.6384 98.1484C52.6678 98.076 52.6963 98.0035 52.7249 97.9301C52.7673 97.8223 52.8088 97.7144 52.8503 97.6066C52.8763 97.5384 52.9031 97.4703 52.9291 97.4021C52.9758 97.2805 53.0208 97.158 53.0666 97.0363C53.0874 96.9811 53.1082 96.9267 53.1281 96.8724C53.1929 96.6955 53.257 96.5178 53.3201 96.3392C53.3288 96.3141 53.3374 96.2891 53.3461 96.265C53.3997 96.1114 53.4534 95.9578 53.5061 95.8042C53.5278 95.7412 53.5485 95.6774 53.5701 95.6144C53.6091 95.4979 53.648 95.3815 53.6861 95.265C53.7094 95.1925 53.7328 95.12 53.7562 95.0476C53.7908 94.9389 53.8262 94.8302 53.86 94.7214C53.8833 94.6455 53.9067 94.5705 53.9309 94.4945C53.9638 94.3884 53.9967 94.2814 54.0287 94.1744C54.052 94.0968 54.0754 94.02 54.0979 93.9423C54.129 93.8362 54.1602 93.7292 54.1913 93.6223C54.2138 93.5455 54.2354 93.4678 54.2579 93.391C54.2891 93.2823 54.3194 93.1727 54.3488 93.064C54.3695 92.989 54.3903 92.9139 54.4102 92.8388C54.4414 92.7241 54.4716 92.6085 54.5019 92.4929C54.5201 92.423 54.5382 92.354 54.5564 92.2841C54.591 92.1495 54.6248 92.014 54.6585 91.8786C54.6706 91.8285 54.6836 91.7785 54.6957 91.7284C54.7407 91.5429 54.7857 91.3566 54.8289 91.1702C54.8393 91.1271 54.8488 91.0839 54.8584 91.0399C54.8912 90.8967 54.9241 90.7526 54.9552 90.6085C54.97 90.5395 54.9847 90.4705 54.9994 90.4023C55.0253 90.2833 55.0504 90.1642 55.0755 90.0443C55.0911 89.9675 55.1067 89.8916 55.1222 89.8148C55.1447 89.7018 55.1672 89.5896 55.1897 89.4766C55.2053 89.3972 55.22 89.3178 55.2356 89.2376C55.2563 89.1263 55.2771 89.0158 55.297 88.9045C55.3117 88.8243 55.3264 88.7441 55.3402 88.663C55.3489 88.6138 55.3584 88.5655 55.3662 88.5163C55.3679 88.5085 55.3679 88.5016 55.3688 88.4939C55.5937 87.1902 55.7676 85.8693 55.8862 84.5319C55.2831 85.682 54.5772 86.7916 53.7761 87.8494C53.757 87.8744 53.7371 87.8994 53.7181 87.9253C53.6316 88.0383 53.5451 88.1505 53.4568 88.2618C53.4213 88.3066 53.3859 88.3506 53.3495 88.3955C53.2734 88.4904 53.1964 88.5844 53.1185 88.6785C53.0822 88.7225 53.045 88.7674 53.0087 88.8114C52.9178 88.9201 52.8253 89.0279 52.7318 89.1349C52.7102 89.1599 52.6886 89.1858 52.6669 89.2108C52.5519 89.342 52.4359 89.4714 52.3174 89.6008C52.2845 89.6362 52.2517 89.6716 52.2197 89.7069C52.1323 89.8018 52.0432 89.8959 51.9541 89.9899C51.9125 90.0331 51.8719 90.0762 51.8303 90.1185C51.743 90.2091 51.6547 90.2979 51.5665 90.3877C51.5284 90.4256 51.4912 90.4645 51.4523 90.5016C51.3268 90.6258 51.2005 90.7492 51.0716 90.8708C51.063 90.8786 51.0552 90.8864 51.0465 90.8941C50.9263 91.008 50.8043 91.121 50.6806 91.2341C50.639 91.272 50.5966 91.31 50.5542 91.3471C50.4608 91.4308 50.3674 91.5145 50.2722 91.5973C50.2272 91.637 50.1814 91.6767 50.1355 91.7155C50.0326 91.8044 49.9287 91.8915 49.8241 91.9786C49.7895 92.0071 49.7557 92.0365 49.7211 92.0649C49.5827 92.1788 49.4434 92.291 49.3024 92.4031C49.2695 92.429 49.2366 92.454 49.2037 92.4799C49.0939 92.5662 48.9831 92.6516 48.8707 92.7362C48.8222 92.7724 48.7738 92.8095 48.7245 92.8457C48.6224 92.9217 48.5203 92.9967 48.4173 93.0718C48.3697 93.1063 48.3222 93.1408 48.2746 93.1745C48.1439 93.2676 48.0124 93.36 47.8801 93.4506C47.8619 93.4635 47.8437 93.4764 47.8256 93.4885C47.675 93.5912 47.5228 93.6921 47.3696 93.7922C47.3246 93.8216 47.2779 93.8509 47.2329 93.8802C47.1222 93.9518 47.0106 94.0226 46.8981 94.0925C46.8454 94.1253 46.7917 94.1589 46.7381 94.1917C46.6239 94.2616 46.5088 94.3306 46.3937 94.3996C46.3479 94.4264 46.3029 94.454 46.2562 94.4816C46.097 94.5748 45.9361 94.6671 45.7743 94.7577C45.7492 94.7715 45.7233 94.7853 45.6982 94.7991C45.5597 94.8759 45.4213 94.951 45.2812 95.0251C45.2275 95.0536 45.173 95.0821 45.1185 95.1106C45.0026 95.171 44.8858 95.2313 44.7681 95.29C44.7119 95.3185 44.6565 95.3461 44.6003 95.3746C44.4662 95.441 44.3321 95.5057 44.1963 95.5704C44.1599 95.5877 44.1245 95.6049 44.0881 95.6222C43.9177 95.7024 43.7455 95.7809 43.5725 95.8577C43.5266 95.8784 43.4808 95.8974 43.4349 95.9173C43.3052 95.9742 43.1745 96.0303 43.043 96.0855C42.9833 96.1105 42.9236 96.1355 42.8639 96.1597C42.7385 96.2115 42.6122 96.2624 42.4859 96.3116C42.4305 96.3331 42.3751 96.3556 42.3198 96.3771C42.1407 96.4462 41.9616 96.5143 41.7799 96.5799C41.7799 96.5799 41.7782 96.5799 41.7773 96.5807C38.7225 97.6894 35.6131 98.2149 32.5972 98.2149C27.9168 98.2149 23.4621 96.95 19.7835 94.6395C18.5005 93.8336 17.3118 92.901 16.2408 91.8492C15.2329 90.8605 14.3305 89.7665 13.551 88.5758C13.4558 88.43 13.3624 88.2833 13.2707 88.1341C12.5924 87.034 12.0162 85.8563 11.5594 84.6044C8.47952 76.1646 11.6529 66.8189 18.8094 60.7717C21.1401 58.8028 23.893 57.1842 26.9894 56.06C26.9911 56.06 26.9928 56.0591 26.9937 56.0583C27.1944 55.9849 27.396 55.9151 27.5976 55.8478C27.665 55.8253 27.7325 55.8038 27.8 55.7813C27.9358 55.7365 28.0725 55.6925 28.2083 55.6502C28.2879 55.6252 28.3675 55.6019 28.4471 55.5777C28.5717 55.5397 28.6963 55.5026 28.8217 55.4673C28.9057 55.4431 28.9896 55.4198 29.0735 55.3974C29.1946 55.3637 29.3166 55.331 29.4377 55.2999C30.1454 55.1153 30.854 54.9591 31.5617 54.834C30.963 54.4656 30.3747 54.0704 29.7976 53.6485C29.7016 53.5786 29.6064 53.5079 29.5113 53.4363C29.4732 53.4078 29.4351 53.3793 29.3971 53.35C29.2846 53.2646 29.173 53.1792 29.0622 53.0912C29.0484 53.0799 29.0346 53.0696 29.0207 53.0584C28.8961 52.9609 28.7733 52.8608 28.6504 52.7607C28.6158 52.7322 28.5821 52.7038 28.5475 52.6762C28.4558 52.6002 28.3632 52.5234 28.2724 52.4458C28.236 52.4147 28.1997 52.3837 28.1634 52.3526C28.0492 52.2551 27.9358 52.1568 27.8225 52.0567C27.8147 52.0498 27.8069 52.0437 27.8 52.0368C27.6797 51.9307 27.5612 51.822 27.4427 51.7133C27.4081 51.6814 27.3743 51.6503 27.3397 51.6184C27.2515 51.5364 27.1632 51.4536 27.0759 51.3699C27.0413 51.3371 27.0067 51.3043 26.972 51.2707C26.8553 51.1585 26.7385 51.0446 26.6234 50.9299C25.9728 50.2811 25.3637 49.609 24.7953 48.917C20.9212 44.2036 18.9409 38.5593 18.9184 33.1142C18.895 27.6933 20.8122 22.47 24.7356 18.5573C28.6349 14.6679 33.8353 12.7551 39.2364 12.7551C45.5277 12.7551 52.0925 15.3503 57.1968 20.4399C59.4852 22.722 61.2708 25.2982 62.5443 28.0108C62.5443 28.0117 62.5443 28.0126 62.5452 28.0134C62.6196 28.1722 62.6923 28.3309 62.7632 28.4905C62.7866 28.544 62.8091 28.5967 62.8324 28.6502C62.8791 28.758 62.9267 28.8659 62.9717 28.9737C62.9985 29.0376 63.0245 29.1014 63.0504 29.1652C63.0911 29.2627 63.1309 29.3611 63.1698 29.4595C63.1966 29.5276 63.2235 29.5966 63.2494 29.6648C63.2858 29.7588 63.3221 29.8529 63.3576 29.9478C63.3835 30.0185 63.4095 30.0893 63.4354 30.16C63.4692 30.2532 63.5029 30.3464 63.5349 30.4396C63.56 30.5112 63.5842 30.5828 63.6085 30.6544C63.6396 30.7476 63.6707 30.8399 63.701 30.9331C63.7244 31.0047 63.7477 31.0772 63.7702 31.1497C63.7997 31.2428 63.8282 31.3369 63.8568 31.4301C63.8784 31.5017 63.9 31.5733 63.9216 31.6449C64.3663 33.1608 64.6613 34.6957 64.8024 36.2271C64.9434 34.6957 65.2375 33.1599 65.6831 31.644C65.7038 31.5733 65.7255 31.5017 65.7471 31.4309C65.7757 31.3369 65.8051 31.2428 65.8345 31.1488C65.857 31.0772 65.8803 31.0056 65.9037 30.934C65.934 30.8408 65.9651 30.7467 65.9971 30.6536C66.0214 30.5819 66.0456 30.5112 66.0707 30.4404C66.1035 30.3464 66.1373 30.2532 66.171 30.1592C66.1961 30.0893 66.2221 30.0194 66.248 29.9495C66.2835 29.8546 66.3198 29.7588 66.357 29.6639C66.383 29.5958 66.4089 29.5285 66.4358 29.4603C66.4747 29.362 66.5154 29.2627 66.556 29.1644C66.582 29.1014 66.6079 29.0376 66.6339 28.9746C66.6797 28.8659 66.7273 28.7571 66.774 28.6484C66.7965 28.5958 66.819 28.544 66.8424 28.4914C66.9142 28.3309 66.9869 28.1705 67.0621 28.0108C68.3356 25.2982 70.1213 22.722 72.4096 20.4399C77.5122 15.3503 84.0779 12.7551 90.3692 12.7551C95.7712 12.7551 100.97 14.6679 104.871 18.5573C106.583 20.2647 107.912 22.2224 108.865 24.3362C108.927 24.4726 108.986 24.6089 109.044 24.7461C109.124 24.9333 109.2 25.1214 109.274 25.3112C109.32 25.4311 109.365 25.551 109.41 25.6718C109.608 26.2111 109.783 26.7589 109.935 27.3146C109.959 27.4026 109.982 27.4897 110.005 27.5777C110.07 27.8305 110.131 28.0842 110.187 28.3387C110.203 28.4103 110.218 28.4819 110.233 28.5535C110.362 29.1713 110.463 29.7951 110.538 30.4249C110.582 30.7985 110.616 31.1747 110.64 31.5526C110.662 31.8839 110.677 32.2161 110.684 32.5491C110.687 32.7286 110.689 32.9089 110.689 33.0883C110.689 33.2626 110.685 33.4378 110.681 33.6129C110.544 38.9035 108.566 44.3485 104.809 48.9187C104.242 49.6098 103.633 50.2811 102.983 50.929C102.868 51.0438 102.751 51.1577 102.634 51.2698C102.6 51.3026 102.566 51.3354 102.531 51.3682C102.443 51.4519 102.355 51.5347 102.267 51.6175C102.233 51.6486 102.199 51.6805 102.166 51.7116C102.047 51.8203 101.928 51.929 101.807 52.0351C101.8 52.0411 101.793 52.0481 101.786 52.0541C101.672 52.1542 101.558 52.2534 101.444 52.3518C101.409 52.3828 101.372 52.413 101.336 52.4432C101.244 52.5209 101.152 52.5976 101.059 52.6744C101.024 52.7029 100.991 52.7314 100.956 52.759C100.833 52.8591 100.709 52.9592 100.585 53.0566C100.571 53.067 100.557 53.0782 100.544 53.0886C100.433 53.1757 100.321 53.2629 100.209 53.3483C100.17 53.3767 100.133 53.4052 100.095 53.4337C100 53.5053 99.904 53.576 99.8088 53.6459C99.2318 54.0678 98.6435 54.463 98.0457 54.8314C98.7534 54.9565 99.4619 55.1127 100.17 55.2973C100.291 55.3292 100.413 55.362 100.534 55.3957C100.618 55.419 100.702 55.4423 100.785 55.4655C100.909 55.5009 101.034 55.538 101.159 55.576C101.239 55.6001 101.319 55.6234 101.398 55.6485C101.534 55.6907 101.671 55.7356 101.806 55.7796C101.874 55.802 101.941 55.8227 102.009 55.846C102.211 55.9142 102.414 55.9849 102.616 56.0583H102.617C105.712 57.1816 108.463 58.7994 110.793 60.7665C115.283 64.5584 118.206 69.6497 119.001 75.0016C119.036 75.2337 119.066 75.4658 119.093 75.6979C119.096 75.7272 119.1 75.7574 119.103 75.7867C119.13 76.0301 119.152 76.2742 119.17 76.5184C119.172 76.5374 119.173 76.5563 119.174 76.5753C119.192 76.8307 119.205 77.0861 119.213 77.3415C119.213 77.3492 119.213 77.3579 119.213 77.3656C119.285 79.7866 118.913 82.23 118.048 84.6018C116.489 88.8726 113.554 92.2944 109.819 94.6386C106.143 96.9474 101.689 98.2114 97.011 98.2114C93.995 98.2114 90.8857 97.686 87.83 96.5773C87.83 96.5773 87.83 96.5773 87.8291 96.5773C87.6457 96.5109 87.4649 96.4418 87.2841 96.372C87.2279 96.3504 87.1716 96.3279 87.1154 96.3055C86.9882 96.2555 86.8619 96.2046 86.7356 96.1528C86.675 96.1278 86.6136 96.1028 86.553 96.0769C86.4233 96.0225 86.2944 95.9664 86.1655 95.9104C86.1161 95.8888 86.0668 95.8681 86.0175 95.8456C85.8428 95.768 85.6689 95.6886 85.4976 95.6075C85.4673 95.5937 85.4379 95.5791 85.4076 95.5644C85.2648 95.4962 85.1229 95.4281 84.9819 95.3582C84.9257 95.3306 84.8703 95.3021 84.815 95.2736C84.6973 95.2141 84.5805 95.1537 84.4637 95.0933C84.4075 95.064 84.3512 95.0346 84.295 95.0044C84.1652 94.9354 84.0363 94.8655 83.9083 94.7939C83.8711 94.7732 83.8339 94.7534 83.7967 94.7327C83.6332 94.6412 83.4714 94.548 83.3105 94.454C83.2698 94.4298 83.2291 94.4057 83.1893 94.3815C83.0682 94.3099 82.948 94.2365 82.8286 94.1632C82.7749 94.1304 82.7213 94.0968 82.6677 94.0631C82.5578 93.9941 82.4488 93.9251 82.3398 93.8543C82.2896 93.8216 82.2394 93.7896 82.1892 93.7568C82.0525 93.6671 81.9167 93.5765 81.7826 93.4851C81.7644 93.473 81.7463 93.4609 81.7281 93.4488C81.5767 93.3444 81.4262 93.2392 81.2774 93.1322C81.2332 93.1003 81.19 93.0683 81.1467 93.0364C81.0403 92.9588 80.9348 92.8811 80.8301 92.8026C80.7799 92.7646 80.7297 92.7275 80.6804 92.6896C80.5766 92.6111 80.4745 92.5308 80.3724 92.4506C80.33 92.4169 80.2868 92.3833 80.2444 92.3496C80.1025 92.2366 79.9615 92.1227 79.8222 92.0071C79.8092 91.9959 79.7954 91.9847 79.7824 91.9735C79.6561 91.8682 79.5315 91.7629 79.4086 91.656C79.3654 91.618 79.3221 91.58 79.2789 91.5421C79.1837 91.4592 79.0903 91.3747 78.9968 91.291C78.9519 91.2505 78.906 91.209 78.8619 91.1676C78.7633 91.077 78.6655 90.9856 78.5686 90.8941C78.5349 90.8622 78.5002 90.8303 78.4665 90.7975C78.3376 90.6741 78.2104 90.5499 78.085 90.4248C78.0582 90.398 78.0313 90.3704 78.0045 90.3437C77.905 90.2436 77.8064 90.1426 77.7095 90.0417C77.6688 89.9994 77.6282 89.9563 77.5875 89.9131C77.5027 89.8234 77.4188 89.7337 77.3349 89.6422C77.2951 89.5991 77.2553 89.5559 77.2164 89.5128C77.1195 89.4058 77.0243 89.2988 76.9291 89.1901C76.9075 89.1651 76.885 89.1409 76.8634 89.1159C76.7483 88.9831 76.635 88.8493 76.5225 88.7147C76.4922 88.6776 76.462 88.6405 76.4317 88.6034C76.3495 88.5033 76.2682 88.4033 76.1877 88.3023C76.1505 88.2557 76.1142 88.2091 76.077 88.1625C76.0008 88.0659 75.9256 87.9684 75.8512 87.8701C75.8183 87.8269 75.7845 87.7829 75.7525 87.7398C74.9592 86.682 74.261 85.5725 73.6667 84.4232C73.767 85.7416 73.921 87.0444 74.1243 88.3308C74.1252 88.3385 74.1261 88.3455 74.1269 88.3524C74.1373 88.4197 74.1494 88.487 74.1607 88.5542C74.1736 88.6336 74.1866 88.7121 74.1996 88.7915C74.2195 88.9089 74.2394 89.0253 74.2602 89.1418C74.2731 89.2169 74.2861 89.2919 74.2999 89.3661C74.3224 89.4921 74.3467 89.6189 74.37 89.7449C74.3821 89.8096 74.3943 89.8734 74.4064 89.9382C74.4392 90.1073 74.473 90.2764 74.5076 90.4446C74.5119 90.4653 74.5162 90.4869 74.5206 90.5076C74.5595 90.6965 74.6002 90.8855 74.6408 91.0744C74.6538 91.1323 74.6668 91.1892 74.6797 91.247C74.7092 91.3782 74.7377 91.5084 74.768 91.6387C74.7844 91.7103 74.8017 91.7819 74.819 91.8535C74.8467 91.9692 74.8735 92.0848 74.9021 92.2004C74.9211 92.2772 74.9402 92.354 74.9592 92.4307C74.9869 92.5412 75.0146 92.6516 75.0431 92.7621C75.063 92.8406 75.0838 92.9182 75.1045 92.9967C75.1331 93.1054 75.1616 93.2133 75.1911 93.3211C75.2118 93.3997 75.2335 93.4773 75.2551 93.5558C75.2854 93.6645 75.3156 93.7732 75.3459 93.882C75.3675 93.9579 75.3892 94.0347 75.4108 94.1106C75.4428 94.2219 75.4757 94.3332 75.5086 94.4445C75.5302 94.517 75.551 94.5894 75.5734 94.6619C75.6098 94.7827 75.647 94.9026 75.6842 95.0226C75.7032 95.0847 75.7223 95.1468 75.7413 95.2089C75.7932 95.3737 75.846 95.5385 75.8996 95.7024C75.9048 95.7197 75.91 95.7361 75.916 95.7533C75.9757 95.9345 76.0354 96.1148 76.0969 96.2952C76.1159 96.3512 76.1358 96.4073 76.1548 96.4634C76.1972 96.5868 76.2405 96.711 76.2837 96.8344C76.308 96.9034 76.3331 96.9725 76.3581 97.0415C76.3979 97.1511 76.4369 97.2606 76.4775 97.3702C76.5043 97.4435 76.532 97.5177 76.5597 97.5911C76.5986 97.6963 76.6384 97.8007 76.6782 97.9051C76.7068 97.9802 76.7353 98.0544 76.7648 98.1294C76.8046 98.233 76.8452 98.3357 76.885 98.4383C76.9144 98.5125 76.9438 98.5876 76.9733 98.6618C77.0148 98.7653 77.0563 98.8689 77.0987 98.9715C77.1281 99.044 77.1584 99.1173 77.1878 99.1898C77.2319 99.2959 77.2761 99.4012 77.321 99.5073C77.3505 99.5763 77.379 99.6454 77.4084 99.7135C77.4577 99.8283 77.5071 99.9422 77.5572 100.056C77.5832 100.115 77.6083 100.174 77.6342 100.233C77.7034 100.39 77.7744 100.547 77.8453 100.703C77.8522 100.719 77.8592 100.734 77.8661 100.749C77.944 100.921 78.0236 101.091 78.1031 101.261C78.1291 101.316 78.155 101.37 78.181 101.425C78.2355 101.541 78.2909 101.656 78.3462 101.771C78.3783 101.838 78.4111 101.903 78.4431 101.97C78.4942 102.073 78.5444 102.176 78.5963 102.279C78.6309 102.349 78.6664 102.418 78.701 102.487C78.7511 102.587 78.8013 102.685 78.8524 102.784C78.8887 102.855 78.925 102.926 78.9622 102.996C79.0124 103.093 79.0635 103.19 79.1145 103.286C79.1517 103.357 79.1898 103.428 79.227 103.499C79.2789 103.595 79.3308 103.692 79.3836 103.788C79.4208 103.857 79.4588 103.927 79.496 103.995C79.5505 104.094 79.6059 104.193 79.6613 104.292C79.6976 104.357 79.7339 104.423 79.7703 104.487C79.8308 104.595 79.8931 104.702 79.9546 104.809C79.9866 104.864 80.0177 104.92 80.0497 104.975C80.138 105.127 80.2271 105.278 80.3171 105.429C80.3231 105.439 80.3292 105.448 80.3352 105.459C80.4313 105.619 80.5281 105.78 80.6259 105.939C80.6579 105.991 80.6899 106.042 80.7219 106.094C80.7886 106.202 80.8552 106.309 80.9218 106.416C80.9607 106.478 81.0005 106.54 81.0403 106.602C81.1017 106.698 81.1623 106.794 81.2237 106.889C81.2661 106.955 81.3085 107.02 81.3509 107.085C81.4106 107.177 81.4712 107.269 81.5317 107.36C81.5758 107.427 81.62 107.493 81.6641 107.559C81.7246 107.649 81.7852 107.739 81.8458 107.829C81.8908 107.894 81.9349 107.961 81.9799 108.026C82.0413 108.116 82.1036 108.207 82.1667 108.297C82.2117 108.36 82.2559 108.425 82.3008 108.489C82.3657 108.581 82.4315 108.674 82.4972 108.765C82.5405 108.825 82.5829 108.886 82.6261 108.945C82.6988 109.045 82.7715 109.146 82.8441 109.246C82.8814 109.296 82.9185 109.347 82.9557 109.398C83.0604 109.54 83.1651 109.68 83.2715 109.821C83.2776 109.83 83.2845 109.838 83.2906 109.847C83.403 109.995 83.5164 110.143 83.6297 110.29C83.6669 110.339 83.705 110.387 83.743 110.435C83.82 110.534 83.8979 110.632 83.9758 110.73C84.0208 110.787 84.0675 110.844 84.1125 110.902C84.1834 110.991 84.2543 111.079 84.3261 111.167C84.3755 111.227 84.4248 111.288 84.4741 111.347C84.5433 111.432 84.6125 111.516 84.6826 111.6C84.7336 111.661 84.7838 111.722 84.8349 111.783C84.9041 111.866 84.9741 111.949 85.0442 112.031C85.0953 112.091 85.1472 112.151 85.1991 112.212C85.27 112.295 85.3418 112.377 85.4136 112.459C85.4647 112.518 85.5157 112.577 85.5676 112.635C85.642 112.72 85.7173 112.805 85.7926 112.889C85.8419 112.944 85.8903 113 85.9397 113.054C86.0218 113.145 86.1049 113.237 86.1888 113.327C86.2312 113.374 86.2736 113.421 86.3169 113.467C86.438 113.599 86.56 113.729 86.6828 113.86C86.688 113.865 86.6923 113.87 86.6975 113.875C86.8247 114.011 86.9536 114.145 87.0825 114.279C87.1258 114.324 87.169 114.368 87.2114 114.412C87.2979 114.502 87.3853 114.591 87.4727 114.679C87.5237 114.731 87.5756 114.783 87.6275 114.835C87.708 114.915 87.7876 114.995 87.8681 115.075C87.9234 115.13 87.9788 115.184 88.0333 115.238C88.1112 115.315 88.1899 115.392 88.2686 115.468C88.3257 115.523 88.3828 115.578 88.4399 115.633C88.5178 115.708 88.5965 115.782 88.6752 115.856C88.7332 115.911 88.7903 115.965 88.8483 116.019C88.9279 116.094 89.0083 116.169 89.0888 116.243C89.1459 116.295 89.203 116.348 89.2601 116.401C89.344 116.477 89.4279 116.553 89.5118 116.629C89.5664 116.678 89.6209 116.728 89.6754 116.777C89.7679 116.86 89.8614 116.942 89.9548 117.024C90.0015 117.066 90.0482 117.107 90.095 117.148C90.2334 117.269 90.3727 117.389 90.512 117.508C90.5137 117.51 90.5154 117.511 90.5172 117.513C83.0596 122.161 74.2472 124.846 64.8058 124.846C55.3645 124.846 46.2847 122.078 38.7571 117.299C38.7606 117.296 38.7631 117.294 38.7666 117.291H38.7597Z" fill="#10D63F"/>
<path d="M47.6895 75.9333C52.2693 75.9333 55.982 68.9137 55.982 60.2547C55.982 51.5957 52.2693 44.5762 47.6895 44.5762C43.1097 44.5762 39.3971 51.5957 39.3971 60.2547C39.3971 68.9137 43.1097 75.9333 47.6895 75.9333Z" fill="#10D63F"/>
<path d="M81.913 75.9333C86.4928 75.9333 90.2055 68.9137 90.2055 60.2547C90.2055 51.5957 86.4928 44.5762 81.913 44.5762C77.3333 44.5762 73.6206 51.5957 73.6206 60.2547C73.6206 68.9137 77.3333 75.9333 81.913 75.9333Z" fill="#10D63F"/>
</g>
<defs>
<clipPath id="clip0_7_1094">
<rect width="129.6" height="132.8" fill="white" transform="translate(0 2.3999)"/>
</clipPath>
</defs>
</svg>
